<svg xmlns="http://www.w3.org/2000/svg" id="prefix__icon_sites" width="24" height="24" viewBox="0 0 24 24">
    <defs>
        <style>
            .prefix__cls-1,.prefix__cls-2,.prefix__cls-3{fill:none}.prefix__cls-2,.prefix__cls-3{stroke:#4280f5;stroke-width:1.2px}.prefix__cls-3{stroke-linecap:round}.prefix__cls-4{stroke:none}
        </style>
    </defs>
    <path id="prefix__bound" d="M0 0H24V24H0z" class="prefix__cls-1"/>
    <g id="prefix__icon" transform="translate(3 2)">
        <g id="prefix__Rectangle_259" class="prefix__cls-2" data-name="Rectangle 259" transform="translate(0 -1)">
            <rect width="18" height="22" class="prefix__cls-4" rx="2"/>
            <rect width="16.8" height="20.8" x=".6" y=".6" class="prefix__cls-1" rx="1.4"/>
        </g>
        <g id="prefix__Rectangle_260" class="prefix__cls-2" data-name="Rectangle 260">
            <path d="M2 0h2a2 2 0 0 1 2 2v5H0V2a2 2 0 0 1 2-2z" class="prefix__cls-4" transform="translate(6 14)"/>
            <path d="M2 .6h2A1.4 1.4 0 0 1 5.4 2v3.8a.6.6 0 0 1-.6.6H1.2a.6.6 0 0 1-.6-.6V2A1.4 1.4 0 0 1 2 .6z" class="prefix__cls-1" transform="translate(6 14)"/>
        </g>
        <path id="prefix__Path_65" d="M10392.793 1135.328h3" class="prefix__cls-3" data-name="Path 65" transform="translate(-10388.793 -1132.328)"/>
        <path id="prefix__Path_68" d="M10392.793 1135.328h3" class="prefix__cls-3" data-name="Path 68" transform="translate(-10388.793 -1128.692)"/>
        <path id="prefix__Path_70" d="M10392.793 1135.328h3" class="prefix__cls-3" data-name="Path 70" transform="translate(-10388.793 -1124.874)"/>
        <path id="prefix__Path_66" d="M10392.793 1135.328h3" class="prefix__cls-3" data-name="Path 66" transform="translate(-10381.793 -1132.328)"/>
        <path id="prefix__Path_67" d="M10392.793 1135.328h3" class="prefix__cls-3" data-name="Path 67" transform="translate(-10381.793 -1128.692)"/>
        <path id="prefix__Path_69" d="M10392.793 1135.328h3" class="prefix__cls-3" data-name="Path 69" transform="translate(-10381.793 -1124.874)"/>
    </g>
</svg>
