<svg xmlns="http://www.w3.org/2000/svg" id="prefix__icon_services" width="24" height="24" viewBox="0 0 24 24">
    <defs>
        <style>
            .prefix__cls-1{fill:none}.prefix__cls-4{stroke:none}
        </style>
    </defs>
    <path id="prefix__bound" d="M0 0H24V24H0z" class="prefix__cls-1"/>
    <g id="prefix__icon">
        <g id="prefix__Union_4" data-name="Union 4" style="fill:none">
            <path d="M11 24a2 2 0 0 1-2-2v-.458a9.938 9.938 0 0 1-1.626-.674l-.324.324a2 2 0 0 1-2.828 0l-1.415-1.414a2 2 0 0 1 0-2.829l.324-.324A9.934 9.934 0 0 1 2.458 15H2a2 2 0 0 1-2-2v-2a2 2 0 0 1 2-2h.458a9.946 9.946 0 0 1 .674-1.625l-.324-.324a2 2 0 0 1 0-2.829l1.414-1.414a2 2 0 0 1 2.828 0l.324.324A9.939 9.939 0 0 1 9 2.458V2a2 2 0 0 1 2-2h2a2 2 0 0 1 2 2v.458a9.94 9.94 0 0 1 1.626.674l.324-.324a2 2 0 0 1 2.829 0l1.414 1.414a2 2 0 0 1 0 2.829l-.324.324A9.942 9.942 0 0 1 21.543 9H22a2 2 0 0 1 2 2v2a2 2 0 0 1-2 2h-.458a9.94 9.94 0 0 1-.674 1.626l.324.324a2 2 0 0 1 0 2.829l-1.414 1.414a2 2 0 0 1-2.829 0l-.324-.324a9.94 9.94 0 0 1-1.625.673V22a2 2 0 0 1-2 2z" class="prefix__cls-4"/>
            <path d="M13 22.8c.442 0 .8-.358.8-.8v-1.338l.84-.264c.492-.155.973-.354 1.43-.593l.781-.408.623.623.324.324c.151.151.352.234.566.234.214 0 .415-.083.566-.234l1.414-1.414c.312-.312.312-.82 0-1.132l-.324-.324-.623-.623.408-.781c.239-.457.438-.938.593-1.43l.264-.84H22c.44 0 .8-.358.8-.8v-2c0-.441-.36-.8-.8-.8h-1.339l-.264-.84c-.155-.492-.354-.973-.593-1.43l-.408-.78.623-.624.324-.324c.312-.312.312-.82 0-1.132L18.93 3.657c-.151-.152-.352-.235-.566-.235-.214 0-.415.083-.566.235l-.324.323-.623.624-.781-.409c-.457-.239-.938-.438-1.43-.592l-.84-.264V2c0-.441-.358-.8-.8-.8h-2c-.441 0-.8.359-.8.8v1.338l-.84.264c-.492.155-.973.354-1.43.593l-.781.409-.624-.623-.324-.325c-.151-.15-.351-.234-.565-.234-.213 0-.414.083-.566.235L3.656 5.07c-.312.312-.312.82 0 1.132l.324.324.623.623-.408.782c-.239.457-.438.937-.593 1.429l-.264.84H2c-.441 0-.8.359-.8.8v2c0 .442.359.8.8.8h1.338l.265.84c.154.492.353.973.592 1.43l.408.78-.623.624-.324.324c-.312.312-.312.82 0 1.132l1.414 1.414c.152.151.353.234.566.234.214 0 .414-.083.565-.234l.324-.324.624-.624.78.409c.458.239.939.438 1.43.593l.841.264V22c0 .44.359.8.8.8h2m0 1.2h-2c-1.104 0-2-.896-2-2v-.458c-.565-.178-1.11-.404-1.626-.675l-.324.324c-.39.39-.902.586-1.414.586-.512 0-1.023-.195-1.414-.586l-1.415-1.414c-.781-.78-.781-2.047 0-2.828l.325-.325c-.27-.517-.497-1.06-.674-1.625H2c-1.104 0-2-.895-2-2v-2c0-1.104.896-2 2-2h.458c.177-.565.403-1.109.673-1.625l-.324-.324c-.781-.782-.781-2.048 0-2.83l1.415-1.413c.39-.39.902-.586 1.414-.586.512 0 1.024.195 1.414.586l.324.324c.517-.27 1.06-.497 1.626-.674V2c0-1.104.896-2 2-2h2c1.105 0 2 .896 2 2v.458c.565.177 1.109.404 1.626.674l.324-.324c.39-.39.902-.586 1.414-.586.512 0 1.024.195 1.414.586l1.414 1.414c.782.781.782 2.047 0 2.829l-.323.323c.27.517.496 1.061.674 1.626H22c1.104 0 2 .896 2 2v2c0 1.105-.896 2-2 2h-.458c-.178.565-.404 1.109-.675 1.626l.324.324c.782.78.782 2.047 0 2.828l-1.414 1.414c-.39.39-.902.586-1.414.586-.512 0-1.024-.195-1.414-.586l-.324-.324c-.517.27-1.06.497-1.626.675V22c0 1.104-.895 2-2 2z" style="fill:#4280f5;stroke:none"/>
        </g>
        <g id="prefix__Ellipse_46" data-name="Ellipse 46" transform="translate(7 7)" style="stroke:#4280f5;stroke-width:1.2px;fill:none">
            <circle cx="5" cy="5" r="5" class="prefix__cls-4"/>
            <circle cx="5" cy="5" r="4.4" class="prefix__cls-1"/>
        </g>
    </g>
</svg>
